<svg width="730.812" height="94.241" viewBox="0 0 730.812 94.241" xmlns="http://www.w3.org/2000/svg"><g id="svgGroup" stroke-linecap="round" fill-rule="evenodd" font-size="9pt" stroke="#000" stroke-width="0.25mm" fill="#ffffff" ><path d="M 117.628 20.069 L 128.81 20.069 L 129.151 25.586 A 18.25 18.25 0 0 1 141.324 19.267 A 26.026 26.026 0 0 1 144.386 19.092 Q 154.981 19.092 158.888 27.198 A 18.342 18.342 0 0 1 172.214 19.257 A 24.574 24.574 0 0 1 175.099 19.092 Q 181.195 19.092 185.118 21.444 A 12.647 12.647 0 0 1 188.111 23.926 Q 191.471 27.727 192.249 34.367 A 36.037 36.037 0 0 1 192.481 38.184 L 192.481 72.901 L 180.616 72.901 L 180.616 38.526 Q 180.616 35.53 179.837 33.487 A 7.03 7.03 0 0 0 178.419 31.153 A 6.471 6.471 0 0 0 175.999 29.571 Q 174.958 29.166 173.653 28.976 A 17.482 17.482 0 0 0 171.144 28.809 A 12.354 12.354 0 0 0 168.205 29.14 A 8.845 8.845 0 0 0 164.527 30.982 A 11.23 11.23 0 0 0 161.221 35.806 A 13.871 13.871 0 0 0 160.939 36.67 L 160.987 72.901 L 149.122 72.901 L 149.122 38.135 A 13.565 13.565 0 0 0 148.548 34.388 Q 147.219 30.204 142.851 29.158 A 13.977 13.977 0 0 0 139.601 28.809 A 13.585 13.585 0 0 0 135.55 29.376 A 9.966 9.966 0 0 0 129.493 34.619 L 129.493 72.901 L 117.628 72.901 L 117.628 20.069 Z M 351.759 20.069 L 362.94 20.069 L 363.282 25.586 A 18.25 18.25 0 0 1 375.455 19.267 A 26.026 26.026 0 0 1 378.517 19.092 Q 389.112 19.092 393.019 27.198 A 18.342 18.342 0 0 1 406.345 19.257 A 24.574 24.574 0 0 1 409.23 19.092 Q 415.326 19.092 419.249 21.444 A 12.647 12.647 0 0 1 422.242 23.926 Q 425.602 27.727 426.38 34.367 A 36.037 36.037 0 0 1 426.612 38.184 L 426.612 72.901 L 414.747 72.901 L 414.747 38.526 Q 414.747 35.53 413.967 33.487 A 7.03 7.03 0 0 0 412.55 31.153 A 6.471 6.471 0 0 0 410.13 29.571 Q 409.089 29.166 407.784 28.976 A 17.482 17.482 0 0 0 405.274 28.809 A 12.354 12.354 0 0 0 402.336 29.14 A 8.845 8.845 0 0 0 398.658 30.982 A 11.23 11.23 0 0 0 395.352 35.806 A 13.871 13.871 0 0 0 395.069 36.67 L 395.118 72.901 L 383.253 72.901 L 383.253 38.135 A 13.565 13.565 0 0 0 382.679 34.388 Q 381.35 30.204 376.981 29.158 A 13.977 13.977 0 0 0 373.731 28.809 A 13.585 13.585 0 0 0 369.681 29.376 A 9.966 9.966 0 0 0 363.624 34.619 L 363.624 72.901 L 351.759 72.901 L 351.759 20.069 Z M 56.544 36.426 L 56.544 63.672 A 22.137 22.137 0 0 1 49.554 69.589 A 28.731 28.731 0 0 1 45.851 71.289 A 39.26 39.26 0 0 1 37.079 73.45 A 51.451 51.451 0 0 1 30.323 73.877 A 33.568 33.568 0 0 1 21.408 72.733 A 28.319 28.319 0 0 1 14.503 69.824 Q 7.618 65.772 3.883 58.228 A 36.404 36.404 0 0 1 0.712 48.383 A 48.391 48.391 0 0 1 0.001 40.625 L 0.001 35.059 A 54.444 54.444 0 0 1 0.832 25.244 Q 2.532 15.974 7.716 9.888 A 25.182 25.182 0 0 1 23.496 1.264 A 36.691 36.691 0 0 1 29.249 0.83 A 38.919 38.919 0 0 1 36.988 1.555 Q 43.569 2.89 48.097 6.69 A 22.713 22.713 0 0 1 54.916 16.754 A 33.106 33.106 0 0 1 56.495 23.584 L 44.386 23.584 A 19.685 19.685 0 0 0 42.686 17.966 Q 39.125 10.742 29.493 10.742 Q 21.192 10.742 16.871 16.724 A 20.118 20.118 0 0 0 14.132 22.25 Q 13.261 24.893 12.828 28.123 A 51.254 51.254 0 0 0 12.403 34.278 L 12.403 39.746 Q 12.403 51.27 17.262 57.642 A 15.634 15.634 0 0 0 28.661 63.914 A 21.654 21.654 0 0 0 30.763 64.014 Q 40.109 64.014 44.132 59.831 A 9.976 9.976 0 0 0 44.239 59.717 L 44.239 45.801 L 29.591 45.801 L 29.591 36.426 L 56.544 36.426 Z M 272.657 49.756 L 284.962 49.756 A 31.718 31.718 0 0 1 283.183 57.844 A 23.352 23.352 0 0 1 276.564 67.505 Q 269.418 73.722 257.672 73.873 A 45.728 45.728 0 0 1 257.081 73.877 A 30.384 30.384 0 0 1 248.626 72.74 A 25.763 25.763 0 0 1 242.115 69.849 A 26.083 26.083 0 0 1 232.815 59.76 A 31.752 31.752 0 0 1 232.13 58.399 Q 228.614 50.977 228.468 41.162 L 228.468 34.522 A 48.182 48.182 0 0 1 229.304 25.339 A 36.796 36.796 0 0 1 232.032 16.797 A 28.333 28.333 0 0 1 237.443 8.846 A 25.763 25.763 0 0 1 242.262 4.981 A 27.509 27.509 0 0 1 254.202 1.002 A 34.356 34.356 0 0 1 257.667 0.83 Q 269.435 0.83 276.612 7.227 Q 283.79 13.623 284.962 25.293 L 272.657 25.293 A 30.131 30.131 0 0 0 271.949 21.319 Q 271.432 19.286 270.648 17.676 A 11.756 11.756 0 0 0 268.19 14.234 Q 265.189 11.397 259.852 10.931 A 25.169 25.169 0 0 0 257.667 10.84 Q 249.61 10.84 245.289 16.724 A 19.611 19.611 0 0 0 242.516 22.285 Q 241.673 24.864 241.261 28.005 A 49.36 49.36 0 0 0 240.87 33.985 L 240.87 40.283 A 51.639 51.639 0 0 0 241.253 46.798 Q 241.663 50.011 242.511 52.642 A 20.228 20.228 0 0 0 244.996 57.862 A 13.261 13.261 0 0 0 254.659 63.765 A 18.746 18.746 0 0 0 257.081 63.916 A 25.921 25.921 0 0 0 261.082 63.628 Q 263.195 63.297 264.888 62.587 A 11.09 11.09 0 0 0 268.019 60.645 A 11.425 11.425 0 0 0 270.551 57.27 Q 271.362 55.681 271.906 53.66 A 29.483 29.483 0 0 0 272.657 49.756 Z M 76.271 20.069 L 87.452 55.908 L 98.194 20.069 L 110.841 20.069 L 89.845 80.908 A 28.112 28.112 0 0 1 86.904 86.896 Q 84.428 90.625 80.994 92.46 A 15.777 15.777 0 0 1 73.439 94.239 A 17.923 17.923 0 0 1 70.716 94.019 Q 69.467 93.827 68.114 93.466 A 29.431 29.431 0 0 1 67.726 93.36 L 67.726 84.18 L 69.972 84.326 A 19.72 19.72 0 0 0 72.443 84.182 Q 75.138 83.841 76.734 82.691 Q 79.005 81.055 80.323 77.198 L 82.032 72.657 L 63.478 20.069 L 76.271 20.069 Z M 549.024 20.069 L 560.206 20.069 L 560.548 26.172 A 18.764 18.764 0 0 1 574.176 19.154 A 24.301 24.301 0 0 1 575.929 19.092 A 20.551 20.551 0 0 1 582.972 20.2 Q 592.504 23.669 592.726 37.989 L 592.726 72.901 L 580.86 72.901 L 580.86 38.672 A 18.489 18.489 0 0 0 580.674 35.95 Q 580.224 32.935 578.688 31.226 A 6.501 6.501 0 0 0 576.098 29.511 Q 574.242 28.809 571.583 28.809 A 12.422 12.422 0 0 0 566.624 29.761 Q 563.729 31.007 561.754 33.885 A 15.784 15.784 0 0 0 560.89 35.303 L 560.89 72.901 L 549.024 72.901 L 549.024 20.069 Z M 687.11 20.069 L 698.292 20.069 L 698.634 26.172 A 18.764 18.764 0 0 1 712.262 19.154 A 24.301 24.301 0 0 1 714.015 19.092 A 20.551 20.551 0 0 1 721.058 20.2 Q 730.59 23.669 730.812 37.989 L 730.812 72.901 L 718.946 72.901 L 718.946 38.672 A 18.489 18.489 0 0 0 718.76 35.95 Q 718.31 32.935 716.773 31.226 A 6.501 6.501 0 0 0 714.184 29.511 Q 712.327 28.809 709.669 28.809 A 12.422 12.422 0 0 0 704.71 29.761 Q 701.815 31.007 699.84 33.885 A 15.784 15.784 0 0 0 698.976 35.303 L 698.976 72.901 L 687.11 72.901 L 687.11 20.069 Z M 538.771 72.901 L 526.661 72.901 Q 526.017 71.653 525.506 69.11 A 40.514 40.514 0 0 1 525.294 67.969 A 18.423 18.423 0 0 1 511.937 73.871 A 22.455 22.455 0 0 1 511.427 73.877 A 22.778 22.778 0 0 1 505.55 73.156 A 16.956 16.956 0 0 1 498.439 69.336 A 15.096 15.096 0 0 1 494.524 63.927 A 14.978 14.978 0 0 1 493.409 58.106 A 18.076 18.076 0 0 1 494.255 52.432 A 14.345 14.345 0 0 1 499.684 45.142 Q 505.958 40.625 517.628 40.625 L 524.903 40.625 L 524.903 37.158 Q 524.903 33.057 522.608 30.591 A 7.165 7.165 0 0 0 519.55 28.685 Q 518.388 28.3 516.969 28.18 A 15.907 15.907 0 0 0 515.626 28.125 A 13.271 13.271 0 0 0 512.697 28.431 A 9.232 9.232 0 0 0 508.985 30.152 A 7.054 7.054 0 0 0 507.286 32.018 A 6.173 6.173 0 0 0 506.398 35.303 L 494.532 35.303 A 12.876 12.876 0 0 1 496.718 28.158 A 16.331 16.331 0 0 1 497.413 27.173 A 18.192 18.192 0 0 1 502.764 22.497 A 22.974 22.974 0 0 1 505.25 21.241 A 26.106 26.106 0 0 1 512.967 19.262 A 32.142 32.142 0 0 1 516.31 19.092 A 29.922 29.922 0 0 1 522.461 19.688 Q 526.285 20.491 529.235 22.377 A 17.484 17.484 0 0 1 531.105 23.755 A 15.565 15.565 0 0 1 536.405 33.114 A 22.671 22.671 0 0 1 536.769 36.866 L 536.769 60.694 A 41.459 41.459 0 0 0 536.984 65.062 Q 537.215 67.236 537.694 69.055 A 17.54 17.54 0 0 0 538.771 72.071 L 538.771 72.901 Z M 485.06 46.289 L 485.06 47.022 Q 485.06 56.546 481.698 63.077 A 23.474 23.474 0 0 1 479.493 66.577 Q 473.927 73.877 464.552 73.877 A 21.435 21.435 0 0 1 458.291 73.006 A 16.842 16.842 0 0 1 450.636 68.164 L 450.636 93.213 L 438.771 93.213 L 438.771 20.069 L 449.708 20.069 L 450.196 25.44 Q 455.421 19.092 464.405 19.092 A 20.813 20.813 0 0 1 471.321 20.191 A 17.507 17.507 0 0 1 479.566 26.294 A 24.519 24.519 0 0 1 483.498 34.236 Q 484.523 37.67 484.875 41.788 A 52.846 52.846 0 0 1 485.06 46.289 Z M 292.628 46.582 L 292.628 45.996 A 33.799 33.799 0 0 1 293.601 37.749 A 28.661 28.661 0 0 1 295.704 32.007 A 23.459 23.459 0 0 1 300.595 25.281 A 21.699 21.699 0 0 1 304.347 22.437 A 23.484 23.484 0 0 1 314.272 19.23 A 29.207 29.207 0 0 1 317.14 19.092 A 27.079 27.079 0 0 1 325.163 20.228 A 21.726 21.726 0 0 1 334.498 25.977 A 24.918 24.918 0 0 1 340.841 37.879 A 35.053 35.053 0 0 1 341.7 44.239 L 341.749 47.022 A 34.842 34.842 0 0 1 340.902 54.854 A 28.508 28.508 0 0 1 338.746 60.987 Q 335.743 67.139 330.152 70.508 A 23.518 23.518 0 0 1 320.413 73.71 A 29.532 29.532 0 0 1 317.237 73.877 A 27.135 27.135 0 0 1 309.036 72.695 A 21.601 21.601 0 0 1 299.342 66.431 A 25.308 25.308 0 0 1 293.497 54.867 A 37.314 37.314 0 0 1 292.628 46.582 Z M 628.126 46.582 L 628.126 45.996 A 33.799 33.799 0 0 1 629.099 37.749 A 28.661 28.661 0 0 1 631.202 32.007 A 23.459 23.459 0 0 1 636.093 25.281 A 21.699 21.699 0 0 1 639.845 22.437 A 23.484 23.484 0 0 1 649.77 19.23 A 29.207 29.207 0 0 1 652.638 19.092 A 27.079 27.079 0 0 1 660.661 20.228 A 21.726 21.726 0 0 1 669.996 25.977 A 24.918 24.918 0 0 1 676.339 37.879 A 35.053 35.053 0 0 1 677.198 44.239 L 677.247 47.022 A 34.842 34.842 0 0 1 676.4 54.854 A 28.508 28.508 0 0 1 674.244 60.987 Q 671.241 67.139 665.65 70.508 A 23.518 23.518 0 0 1 655.911 73.71 A 29.532 29.532 0 0 1 652.735 73.877 A 27.135 27.135 0 0 1 644.534 72.695 A 21.601 21.601 0 0 1 634.84 66.431 A 25.308 25.308 0 0 1 628.995 54.867 A 37.314 37.314 0 0 1 628.126 46.582 Z M 617.433 20.069 L 617.433 72.901 L 605.567 72.901 L 605.567 20.069 L 617.433 20.069 Z M 304.493 47.022 A 31.886 31.886 0 0 0 304.856 51.992 Q 305.272 54.625 306.167 56.757 A 14.884 14.884 0 0 0 307.862 59.79 A 10.725 10.725 0 0 0 315.6 64.313 A 14.306 14.306 0 0 0 317.237 64.405 A 12.307 12.307 0 0 0 321.523 63.689 Q 324.55 62.574 326.588 59.717 A 15.512 15.512 0 0 0 328.691 55.392 Q 329.35 53.325 329.66 50.802 A 39.589 39.589 0 0 0 329.933 45.996 A 30.182 30.182 0 0 0 329.531 40.91 Q 329.059 38.153 328.033 35.931 A 15.16 15.16 0 0 0 326.49 33.301 A 11.396 11.396 0 0 0 322.613 29.879 Q 320.397 28.712 317.615 28.621 A 14.525 14.525 0 0 0 317.14 28.614 Q 311.329 28.614 307.911 33.228 A 14.897 14.897 0 0 0 305.779 37.479 Q 304.493 41.392 304.493 47.022 Z M 639.991 47.022 A 31.886 31.886 0 0 0 640.354 51.992 Q 640.77 54.625 641.665 56.757 A 14.884 14.884 0 0 0 643.36 59.79 A 10.725 10.725 0 0 0 651.098 64.313 A 14.306 14.306 0 0 0 652.735 64.405 A 12.307 12.307 0 0 0 657.021 63.689 Q 660.048 62.574 662.086 59.717 A 15.512 15.512 0 0 0 664.189 55.392 Q 664.849 53.325 665.158 50.802 A 39.589 39.589 0 0 0 665.431 45.996 A 30.182 30.182 0 0 0 665.029 40.91 Q 664.557 38.153 663.531 35.931 A 15.16 15.16 0 0 0 661.988 33.301 A 11.396 11.396 0 0 0 658.111 29.879 Q 655.895 28.712 653.113 28.621 A 14.525 14.525 0 0 0 652.638 28.614 Q 646.827 28.614 643.409 33.228 A 14.897 14.897 0 0 0 641.277 37.479 Q 639.991 41.392 639.991 47.022 Z M 450.636 34.815 L 450.636 58.252 A 11.606 11.606 0 0 0 453.855 62.178 Q 456.115 63.9 459.262 64.29 A 15.61 15.61 0 0 0 461.183 64.405 A 11.22 11.22 0 0 0 465.45 63.622 Q 468.001 62.583 469.807 60.167 A 13.096 13.096 0 0 0 470.045 59.839 A 14.719 14.719 0 0 0 471.931 55.949 Q 473.159 52.198 473.238 46.754 A 52.153 52.153 0 0 0 473.243 45.996 Q 473.243 40.302 471.611 36.303 A 15.474 15.474 0 0 0 470.094 33.448 A 10.019 10.019 0 0 0 462.85 28.922 A 13.348 13.348 0 0 0 461.085 28.809 A 13.693 13.693 0 0 0 456.764 29.452 Q 452.896 30.732 450.771 34.565 A 14.126 14.126 0 0 0 450.636 34.815 Z M 524.903 58.057 L 524.903 48.096 L 518.507 48.096 A 30.591 30.591 0 0 0 515.058 48.278 Q 511.205 48.716 508.862 50.213 A 8.876 8.876 0 0 0 508.595 50.391 A 7.285 7.285 0 0 0 505.356 55.619 A 9.599 9.599 0 0 0 505.274 56.885 A 8.304 8.304 0 0 0 505.621 59.343 A 6.506 6.506 0 0 0 507.545 62.329 A 7.71 7.71 0 0 0 510.959 64.065 Q 512.105 64.338 513.445 64.355 A 14.113 14.113 0 0 0 513.624 64.356 A 13.497 13.497 0 0 0 520.24 62.647 Q 523.341 60.938 524.903 58.057 Z M 605.188 4.069 A 7.081 7.081 0 0 0 604.835 6.348 A 8.007 8.007 0 0 0 604.846 6.762 A 6.063 6.063 0 0 0 606.568 10.816 A 5.28 5.28 0 0 0 607.405 11.515 Q 608.336 12.142 609.57 12.406 A 9.347 9.347 0 0 0 611.524 12.598 A 11.243 11.243 0 0 0 611.861 12.593 Q 614.84 12.504 616.505 10.816 A 5.917 5.917 0 0 0 617.883 8.649 A 6.738 6.738 0 0 0 618.263 6.348 A 8.12 8.12 0 0 0 618.247 5.843 A 6.141 6.141 0 0 0 616.505 1.807 A 5.408 5.408 0 0 0 615.839 1.226 Q 614.856 0.5 613.524 0.204 A 9.217 9.217 0 0 0 611.524 0 A 11.115 11.115 0 0 0 611.213 0.005 Q 610.133 0.035 609.229 0.277 A 5.614 5.614 0 0 0 606.568 1.807 A 6.014 6.014 0 0 0 605.188 4.069 Z" vector-effect="non-scaling-stroke"/></g></svg>